<?xml version="1.0" encoding="utf-8"?>
<!-- Generator: Adobe Illustrator 19.1.0, SVG Export Plug-In . SVG Version: 6.00 Build 0)  -->
<svg version="1.1" id="Layer_1" xmlns="http://www.w3.org/2000/svg" xmlns:xlink="http://www.w3.org/1999/xlink" x="0px" y="0px"
	 viewBox="40.7 346.5 155 37.5" style="enable-background:new 40.7 346.5 155 37.5;" xml:space="preserve">
<style type="text/css">
	.st0{fill:#0071BC;}
	.st1{fill:#8CC63F;}
</style>
<g>
	<path class="st0" d="M58.1,346.5h3.6v17.6c0,2.9-1,5.5-3.1,7.4c-2.1,2.1-4.5,3.1-7.4,3.1c-2.9,0-5.5-1-7.4-3.1
		c-1.9-2.1-3.1-4.5-3.1-7.4s1-5.5,3.1-7.4c2.1-2.1,4.5-3.1,7.4-3.1c2.7,0,5,1,7.1,2.7v-9.8H58.1L58.1,346.5z M58.1,364.1
		c0-1.9-0.6-3.7-2.1-5c-1.3-1.3-3.1-2.1-5-2.1s-3.7,0.6-5,2.1c-1.3,1.3-2.1,3.1-2.1,5s0.6,3.7,2.1,5c1.3,1.3,3.1,2.1,5,2.1
		s3.7-0.6,5-2.1C57.4,367.6,58.1,366,58.1,364.1z"/>
	<path class="st0" d="M84.4,362.3c0.1,0.8,0.1,2.1,0,3.6H66.8c1.1,3.4,3.6,5,7.1,5.3c3.1,0.1,5.3-1,7.1-3.6h3.6
		c-0.8,2.2-2.2,4-4,5.3c-1.8,1.3-4,1.8-6.4,1.8c-2.9-0.1-5.5-1.1-7.4-3.1c-2.1-2-3.1-4.6-3.1-7.4s1-5.5,3.1-7.4
		c2.1-2.1,4.5-3.1,7.4-3.1c2.7,0,5,0.8,6.9,2.4C82.7,357.5,84,359.7,84.4,362.3z M66.8,362.3h14c-0.5-1.6-1.3-2.9-2.6-3.9
		c-1.3-1-2.7-1.5-4.5-1.5c-1.8,0-3.2,0.5-4.5,1.5C68.2,359.4,67.3,360.7,66.8,362.3z"/>
	<path class="st0" d="M86.1,368.4h3.6v0.8c0,0.5,0.1,1,0.5,1.3c0.3,0.3,0.8,0.5,1.3,0.5h9.7c0.5,0,0.8-0.3,1.3-1
		c0.3-0.6,0.5-1.1,0.5-1.6s-0.1-1-0.5-1.6c-0.3-0.6-0.8-1-1.1-1h-9.7c-1.8,0-3.1-0.6-4-1.8c-0.8-1.1-1.3-2.6-1.3-4.4
		c0-1.6,0.5-3.1,1.5-4.2c1-1.3,2.2-1.9,3.9-1.9h9.7c1.5,0,2.7,0.5,3.7,1.6c1,1,1.6,2.2,1.6,3.7v0.8H103v-0.8c0-0.5-0.1-1-0.5-1.3
		c-0.3-0.3-0.8-0.5-1.3-0.5h-9.7c-0.5,0-0.8,0.3-1.3,1c-0.3,0.6-0.5,1.1-0.5,1.8c0,0.5,0.1,1,0.5,1.6c0.3,0.6,0.8,1,1.3,1h9.7
		c1.8,0,3.1,0.6,4,1.8c0.8,1.1,1.3,2.6,1.3,4.4c0,1.6-0.5,3.1-1.5,4.2c-1,1.3-2.2,1.9-3.9,1.9h-9.7c-1.5,0-2.7-0.5-3.7-1.6
		c-1-1-1.6-2.2-1.6-3.7v-1H86.1L86.1,368.4z"/>
	<path class="st0" d="M108,346.5h3.6v3.6H108V346.5z M108,353.6h3.6v21.1H108V353.6z"/>
	<path class="st0" d="M120.3,379.8h5.3c1.5,0,2.7-0.5,3.7-1.6c1-1,1.6-2.2,1.6-3.7v-2.4l-0.1,0.1c-1.6,1.6-3.9,2.4-6.9,2.4
		c-2.9,0-5.5-1-7.4-3.1c-2.1-2.1-3.1-4.5-3.1-7.4c0-2.9,1-5.5,3.1-7.4c2.1-2.1,4.5-3.1,7.4-3.1c2.7,0,5,0.8,6.9,2.4
		c1.9,1.6,3.1,3.7,3.6,6.4h-3.6c-0.5-1.6-1.3-2.9-2.6-3.9c-1.3-0.9-2.7-1.5-4.5-1.3c-1.9,0-3.6,0.6-5,2.1c-1.3,1.3-2.1,3.1-2.1,5
		s0.6,3.6,2.1,5c1.3,1.3,3.1,2.1,5,2.1c1.8,0,3.2-0.5,4.5-1.3c1.3-1,2.1-2.2,2.6-3.9h3.6v8.7c0,2.4-0.8,4.5-2.6,6.3
		c-1.8,1.8-3.7,2.6-6.3,2.6h-5.3v-4.2L120.3,379.8L120.3,379.8L120.3,379.8z"/>
	<path class="st0" d="M146.5,357c-1.9,0-3.7,0.6-5,2.1c-1.3,1.3-2.1,3.1-2.1,5v10.5h-3.6v-10.5c0-2.9,1-5.5,3.1-7.4
		c2.1-2.1,4.5-3.1,7.4-3.1c2.9,0,5.5,1,7.4,3.1c2.1,2.1,3.1,4.5,3.1,7.4v10.5h-3.6v-10.5c0-1.9-0.6-3.7-2.1-5
		C150.2,357.6,148.6,357,146.5,357z"/>
	<path class="st1" d="M158.8,346.5h3.6v9.7c1.9-1.8,4.4-2.7,7.1-2.7c2.9,0,5.5,1,7.4,3.1c2.1,2.1,3.1,4.5,3.1,7.4v10.5h-3.6v-10.5
		c0-1.9-0.6-3.7-2.1-5c-1.3-1.3-3.1-2.1-5-2.1s-3.7,0.6-5,2.1c-1.3,1.3-2.1,3.1-2.1,5v10.5h-3.4L158.8,346.5L158.8,346.5z"/>
	<path class="st1" d="M181.7,346.5h3.6v3.6h-3.6V346.5z M181.7,353.6h3.6v21.1h-3.6V353.6z"/>
	<path class="st1" d="M186.8,346.5h3.6v28h-3.6V346.5z"/>
	<path class="st1" d="M192.1,346.5h3.6v28h-3.6V346.5z"/>
</g>
</svg>
